<svg xmlns="http://www.w3.org/2000/svg" viewBox="0 0 165.15 41"><defs><style>.cls-1,.cls-4{fill:#fff;}.cls-2{fill:#402401;}.cls-3,.cls-4{isolation:isolate;}.cls-4{font-size:16px;font-family:Oswald-SemiBold, Oswald;font-weight:600;}</style></defs><g id="Layer_2" data-name="Layer 2"><g id="Layer_1-2" data-name="Layer 1"><g id="logo_white" data-name="logo white"><rect id="Rectangle_25" data-name="Rectangle 25" class="cls-1" x="22.16" y="25.88" width="1.67" height="3.35"/><rect id="Rectangle_26" data-name="Rectangle 26" class="cls-1" x="22.16" y="11.77" width="1.67" height="3.35"/><rect id="Rectangle_27" data-name="Rectangle 27" class="cls-1" x="13.85" y="19.64" width="3.68" height="1.84"/><rect id="Rectangle_28" data-name="Rectangle 28" class="cls-1" x="28.35" y="19.64" width="3.68" height="1.84"/><rect id="Rectangle_29" data-name="Rectangle 29" class="cls-1" x="27.25" y="23.8" width="1.67" height="3.35" transform="translate(-9.79 27.32) rotate(-45)"/><rect id="Rectangle_30" data-name="Rectangle 30" class="cls-1" x="17.07" y="13.84" width="1.67" height="3.35" transform="translate(-5.73 17.21) rotate(-45)"/><rect id="Rectangle_31" data-name="Rectangle 31" class="cls-1" x="16.23" y="24.64" width="3.35" height="1.67" transform="translate(-12.77 20.13) rotate(-45)"/><rect id="Rectangle_32" data-name="Rectangle 32" class="cls-1" x="26.41" y="14.68" width="3.35" height="1.67" transform="translate(-2.75 24.41) rotate(-45)"/><path id="Path_67" data-name="Path 67" class="cls-1" d="M29.48,41a10.47,10.47,0,0,1-6.1-2.48c-3.4-2.57-6.66-6.83-9.18-12A39.69,39.69,0,0,1,10,11.1C9.83,6.19,11.06,2.58,13.46.93s5.66-1.09,9.16,1.55,6.66,6.83,9.18,12A39.69,39.69,0,0,1,36,29.9c.18,4.91-1.05,8.52-3.45,10.17A5.3,5.3,0,0,1,29.48,41Zm-13-39.8A4.45,4.45,0,0,0,14,2c-2.06,1.41-3.1,4.64-2.94,9.08a38.42,38.42,0,0,0,4,14.87c2.44,5,5.59,9.12,8.85,11.58S30,40.43,32,39,35.12,34.39,35,30a38.37,38.37,0,0,0-4-14.87c-2.44-5-5.58-9.12-8.84-11.58A9.68,9.68,0,0,0,16.52,1.2Z"/><path id="Path_68" data-name="Path 68" class="cls-1" d="M16.52,41a5.3,5.3,0,0,1-3.06-.93C11.06,38.42,9.83,34.81,10,29.9A39.87,39.87,0,0,1,14.2,14.48c2.52-5.17,5.78-9.43,9.18-12S30.13-.72,32.54.93,36.17,6.19,36,11.1A39.69,39.69,0,0,1,31.8,26.52c-2.52,5.17-5.78,9.43-9.18,12A10.47,10.47,0,0,1,16.52,41Zm13-39.8a9.68,9.68,0,0,0-5.54,2.29C20.66,6,17.52,10.08,15.08,15.08A38.38,38.38,0,0,0,11,30c-.16,4.44.88,7.67,2.94,9.07s4.94.87,8.1-1.52,6.41-6.58,8.85-11.58a38.43,38.43,0,0,0,4-14.87C35.13,6.61,34.09,3.38,32,2a4.48,4.48,0,0,0-2.56-.77Z"/><path id="Path_69" data-name="Path 69" class="cls-1" d="M23,31.26a40.08,40.08,0,0,1-16.11-3C2.45,26.2,0,23.48,0,20.55s2.45-5.65,6.89-7.67A39.91,39.91,0,0,1,23,9.84a39.91,39.91,0,0,1,16.11,3c4.44,2,6.89,4.74,6.89,7.67s-2.45,5.65-6.89,7.67A40.08,40.08,0,0,1,23,31.26Zm0-20.35c-12,0-21.77,4.32-21.77,9.64S11,30.19,23,30.19s21.77-4.32,21.77-9.64S35,10.91,23,10.91Z"/><circle id="Ellipse_2" data-name="Ellipse 2" class="cls-1" cx="22.95" cy="20.56" r="6.45"/><path id="Path_70" data-name="Path 70" class="cls-2" d="M23,27.62a7.12,7.12,0,1,1,7.12-7.12h0A7.14,7.14,0,0,1,23,27.62Zm0-12.56a5.44,5.44,0,1,0,5.44,5.44A5.43,5.43,0,0,0,23,15.06Z"/></g><g id="The_community" data-name="The community" class="cls-3"><text class="cls-4" transform="translate(56 18)">THE COMMUNITY</text></g><g id="Science_museum" data-name="Science museum" class="cls-3"><text class="cls-4" transform="translate(52 35)">SCIENCE MUSEUM</text></g></g></g></svg>