<?xml version="1.0" encoding="UTF-8"?><svg xmlns="http://www.w3.org/2000/svg" viewBox="0 0 164.26 41.01"><defs><style>.r{fill:#fff;}.s{fill:#402401;}.t{isolation:isolate;}</style></defs><g id="a"/><g id="b"><g id="c"><g id="d" transform="translate(0 1)"><rect id="e" class="r" x="22.2" y="25.91" width="1.7" height="3.3"/><rect id="f" class="r" x="22.2" y="11.81" width="1.7" height="3.3"/><rect id="g" class="r" x="13.9" y="19.61" width="3.7" height="1.8"/><rect id="h" class="r" x="28.4" y="19.61" width="3.7" height="1.8"/><rect id="i" class="r" x="27.3" y="23.79" width="1.7" height="3.4" transform="translate(-9.78 27.37) rotate(-45)"/><rect id="j" class="r" x="17.15" y="13.88" width="1.7" height="3.4" transform="translate(-5.75 17.29) rotate(-45)"/><rect id="k" class="r" x="16.33" y="24.65" width="3.4" height="1.7" transform="translate(-12.75 20.22) rotate(-45)"/><rect id="l" class="r" x="26.42" y="14.72" width="3.4" height="1.7" transform="translate(-2.77 24.45) rotate(-45)"/><path id="m" class="r" d="M29.5,41.01c-2.2-.2-4.4-1-6.1-2.5-3.4-2.6-6.7-6.8-9.2-12-2.4-4.8-3.8-10-4.2-15.4-.2-4.9,1-8.5,3.4-10.2,2.4-1.6,5.7-1.1,9.2,1.5,3.4,2.6,6.7,6.8,9.2,12,2.4,4.8,3.8,10,4.2,15.4,.2,4.9-1,8.5-3.4,10.2-.9,.7-2,1-3.1,1ZM16.6,1.21c-.9,0-1.8,.3-2.6,.8-2.1,1.4-3.1,4.6-2.9,9.1,.3,5.2,1.7,10.2,4,14.9,2.4,5,5.6,9.1,8.8,11.6,3.2,2.4,6,2.9,8.1,1.5s3.1-4.6,2.9-9.1c-.3-5.2-1.7-10.2-4-14.9-2.4-5-5.6-9.1-8.8-11.6-1.6-1.3-3.5-2.1-5.5-2.3Z"/><path id="n" class="r" d="M16.6,41.01c-1.1,0-2.2-.3-3.1-.9-2.4-1.6-3.6-5.3-3.4-10.2,.3-5.4,1.8-10.6,4.2-15.4,2.5-5.2,5.8-9.4,9.2-12C27-.09,30.3-.69,32.7,1.01c2.4,1.6,3.6,5.3,3.4,10.2-.3,5.4-1.8,10.6-4.2,15.4-2.5,5.2-5.8,9.4-9.2,12-1.8,1.4-3.9,2.3-6.1,2.4ZM29.5,1.21c-2,.2-4,1-5.5,2.3-3.3,2.5-6.4,6.6-8.8,11.6-2.3,4.6-3.7,9.7-4,14.9-.2,4.4,.9,7.7,2.9,9.1,2.1,1.4,4.9,.9,8.1-1.5,3.3-2.5,6.4-6.6,8.8-11.6,2.3-4.6,3.7-9.7,4-14.9,.2-4.4-.9-7.7-2.9-9.1-.8-.5-1.7-.8-2.6-.8h0Z"/><path id="o" class="r" d="M23,31.31c-5.5,.1-11-.9-16.1-3C2.5,26.31,0,23.61,0,20.61s2.4-5.7,6.9-7.7c5.1-2.1,10.6-3.1,16.1-3,5.5-.1,11,.9,16.1,3,4.4,2,6.9,4.7,6.9,7.7s-2.4,5.7-6.9,7.7c-5.1,2-10.5,3.1-16.1,3Zm0-20.4C11,10.91,1.2,15.21,1.2,20.51s9.8,9.6,21.8,9.6,21.8-4.3,21.8-9.6-9.8-9.6-21.8-9.6h0Z"/><circle id="p" class="r" cx="23" cy="20.61" r="6.4"/><path id="q" class="s" d="M23,27.61c-3.9,0-7.1-3.2-7.1-7.1s3.2-7.1,7.1-7.1,7.1,3.2,7.1,7.1h0c0,3.9-3.1,7.1-7.1,7.1Zm0-12.5c-3,0-5.4,2.4-5.4,5.4s2.4,5.4,5.4,5.4,5.4-2.4,5.4-5.4c.1-3-2.4-5.4-5.4-5.4Z"/></g><g class="t"><path class="r" d="M58.22,7.01h-2v-1.95h6.63v1.95h-1.97v11.01h-2.66V7.01Z"/><path class="r" d="M64.05,5.06h2.64v5.31h2.29V5.06h2.64v12.96h-2.64v-5.75h-2.29v5.75h-2.64V5.06Z"/><path class="r" d="M73.6,5.06h5.65v1.82h-3.02v3.44h2.34v1.84h-2.34v4.07h3.06v1.79h-5.68V5.06Z"/><path class="r" d="M84.43,13.88v-4.64c0-2.67,.88-4.34,3.79-4.34s3.63,1.5,3.63,3.75v1.09h-2.56v-1.2c0-.91-.03-1.74-1.06-1.74s-1.14,.86-1.14,1.82v5.89c0,1.1,.21,1.81,1.14,1.81,1.01,0,1.06-.86,1.06-1.81v-1.26h2.56v1.07c0,2.26-.8,3.89-3.63,3.89s-3.79-1.73-3.79-4.32Z"/><path class="r" d="M93.28,13.94v-4.83c0-2.66,.96-4.21,3.83-4.21s3.83,1.57,3.83,4.21v4.85c0,2.64-.98,4.24-3.83,4.24s-3.83-1.6-3.83-4.26Zm4.96,.66v-6.13c0-.9-.14-1.68-1.14-1.68s-1.14,.78-1.14,1.68v6.13c0,.88,.11,1.71,1.14,1.71s1.14-.83,1.14-1.71Z"/><path class="r" d="M102.86,5.06h2.8l1.6,8.18,1.7-8.18h2.71l.24,12.96h-1.92l-.21-8.8-1.67,8.8h-1.63l-1.71-8.85-.19,8.85h-1.94l.22-12.96Z"/><path class="r" d="M113.98,5.06h2.8l1.6,8.18,1.7-8.18h2.71l.24,12.96h-1.92l-.21-8.8-1.66,8.8h-1.63l-1.71-8.85-.19,8.85h-1.94l.22-12.96Z"/><path class="r" d="M124.83,13.92V5.06h2.59V14.29c0,.99,.11,1.98,1.15,1.98s1.15-.99,1.15-1.98V5.06h2.61V13.92c0,2.72-.82,4.27-3.76,4.27s-3.75-1.55-3.75-4.27Z"/><path class="r" d="M134.17,5.06h1.84l2.88,6.74V5.06h2.19v12.96h-1.78l-2.88-7.17v7.17h-2.26V5.06Z"/><path class="r" d="M143.07,5.06h2.62v12.96h-2.62V5.06Z"/><path class="r" d="M148.88,7.01h-2v-1.95h6.63v1.95h-1.97v11.01h-2.66V7.01Z"/><path class="r" d="M156.36,12.88l-2.53-7.83h2.48l1.39,4.56,1.28-4.56h2.42l-2.5,7.83v5.14h-2.55v-5.14Z"/></g><g class="t"><path class="r" d="M52.69,31.16l2.27-.38c.05,1.62,.43,2.4,1.28,2.4,.67,0,.88-.5,.88-1.06,0-1.1-.56-1.73-1.42-2.48l-1.34-1.17c-.96-.82-1.65-1.76-1.65-3.28,0-2.13,1.36-3.3,3.52-3.3,2.61,0,3.14,1.94,3.23,3.6l-2.29,.34c-.03-1.18-.16-2-1.02-2-.61,0-.91,.54-.91,1.1,0,.93,.45,1.42,1.17,2.05l1.31,1.15c1.09,.94,1.98,2.08,1.98,3.84,0,1.86-1.33,3.22-3.35,3.22-2.4,0-3.55-1.28-3.67-4.03Z"/><path class="r" d="M60.89,30.88v-4.64c0-2.67,.88-4.34,3.79-4.34s3.63,1.5,3.63,3.75v1.09h-2.56v-1.2c0-.91-.03-1.74-1.06-1.74s-1.14,.86-1.14,1.82v5.89c0,1.1,.21,1.81,1.14,1.81,1.01,0,1.06-.86,1.06-1.81v-1.26h2.56v1.07c0,2.26-.8,3.89-3.63,3.89s-3.79-1.73-3.79-4.32Z"/><path class="r" d="M69.97,22.06h2.62v12.96h-2.62v-12.96Z"/><path class="r" d="M74.56,22.06h5.65v1.82h-3.02v3.44h2.34v1.84h-2.34v4.07h3.06v1.79h-5.68v-12.96Z"/><path class="r" d="M81.58,22.06h1.84l2.88,6.74v-6.74h2.19v12.96h-1.78l-2.88-7.17v7.17h-2.26v-12.96Z"/><path class="r" d="M90.25,30.88v-4.64c0-2.67,.88-4.34,3.79-4.34s3.63,1.5,3.63,3.75v1.09h-2.56v-1.2c0-.91-.03-1.74-1.06-1.74s-1.14,.86-1.14,1.82v5.89c0,1.1,.21,1.81,1.14,1.81,1.01,0,1.06-.86,1.06-1.81v-1.26h2.56v1.07c0,2.26-.8,3.89-3.63,3.89s-3.79-1.73-3.79-4.32Z"/><path class="r" d="M99.29,22.06h5.65v1.82h-3.02v3.44h2.34v1.84h-2.34v4.07h3.06v1.79h-5.68v-12.96Z"/><path class="r" d="M110.49,22.06h2.8l1.6,8.18,1.7-8.18h2.71l.24,12.96h-1.92l-.21-8.8-1.66,8.8h-1.63l-1.71-8.85-.19,8.85h-1.94l.22-12.96Z"/><path class="r" d="M121.34,30.92v-8.87h2.59v9.24c0,.99,.11,1.98,1.15,1.98s1.15-.99,1.15-1.98v-9.24h2.61v8.87c0,2.72-.82,4.27-3.76,4.27s-3.75-1.55-3.75-4.27Z"/><path class="r" d="M130.36,31.16l2.27-.38c.05,1.62,.43,2.4,1.28,2.4,.67,0,.88-.5,.88-1.06,0-1.1-.56-1.73-1.42-2.48l-1.34-1.17c-.96-.82-1.65-1.76-1.65-3.28,0-2.13,1.36-3.3,3.52-3.3,2.61,0,3.14,1.94,3.23,3.6l-2.29,.34c-.03-1.18-.16-2-1.02-2-.61,0-.91,.54-.91,1.1,0,.93,.45,1.42,1.17,2.05l1.31,1.15c1.09,.94,1.98,2.08,1.98,3.84,0,1.86-1.33,3.22-3.35,3.22-2.4,0-3.55-1.28-3.67-4.03Z"/><path class="r" d="M138.77,22.06h5.65v1.82h-3.02v3.44h2.34v1.84h-2.34v4.07h3.06v1.79h-5.68v-12.96Z"/><path class="r" d="M145.69,30.92v-8.87h2.59v9.24c0,.99,.11,1.98,1.15,1.98s1.15-.99,1.15-1.98v-9.24h2.61v8.87c0,2.72-.82,4.27-3.76,4.27s-3.75-1.55-3.75-4.27Z"/><path class="r" d="M155.21,22.06h2.8l1.6,8.18,1.7-8.18h2.71l.24,12.96h-1.92l-.21-8.8-1.67,8.8h-1.63l-1.71-8.85-.19,8.85h-1.94l.22-12.96Z"/></g></g></g></svg>