<?xml version="1.0" encoding="UTF-8"?><svg xmlns="http://www.w3.org/2000/svg" viewBox="0 0 150.16 41.06"><defs><style>.r{fill:#fff;}.s{fill:#4129d9;}.t{isolation:isolate;}</style></defs><g id="a"/><g id="b"><g id="c"><g id="d"><rect id="e" class="s" x="22.1" y="25.86" width="1.7" height="3.3"/><rect id="f" class="s" x="22.1" y="11.76" width="1.7" height="3.3"/><rect id="g" class="s" x="13.8" y="19.66" width="3.7" height="1.8"/><rect id="h" class="s" x="28.3" y="19.66" width="3.7" height="1.8"/><rect id="i" class="s" x="27.25" y="23.84" width="1.7" height="3.4" transform="translate(-9.83 27.35) rotate(-45)"/><rect id="j" class="s" x="17.03" y="13.87" width="1.7" height="3.4" transform="translate(-5.77 17.2) rotate(-45)"/><rect id="k" class="s" x="16.2" y="24.64" width="3.4" height="1.7" transform="translate(-12.78 20.13) rotate(-45)"/><rect id="l" class="s" x="26.37" y="14.63" width="3.4" height="1.7" transform="translate(-2.73 24.38) rotate(-45)"/><path id="m" class="s" d="M29.4,41.06c-2.2-.2-4.4-1-6.1-2.5-3.4-2.6-6.7-6.8-9.2-12-2.4-4.8-3.8-10-4.2-15.4-.2-4.9,1-8.5,3.4-10.2s5.7-1.1,9.2,1.5c3.4,2.6,6.7,6.8,9.2,12,2.4,4.8,3.8,10,4.2,15.4,.2,4.9-1,8.5-3.4,10.2-.9,.6-2,1-3.1,1ZM16.5,1.26c-.9,0-1.8,.3-2.6,.8-2.1,1.4-3.1,4.6-2.9,9.1,.3,5.2,1.7,10.2,4,14.9,2.4,5,5.6,9.1,8.8,11.6,3.2,2.4,6,2.9,8.1,1.5s3.1-4.6,2.9-9.1c-.3-5.2-1.7-10.2-4-14.9-2.4-5-5.6-9.1-8.8-11.6-1.5-1.4-3.5-2.2-5.5-2.3Z"/><path id="n" class="s" d="M16.5,41.06c-1.1,0-2.2-.3-3.1-.9-2.4-1.6-3.6-5.3-3.4-10.2,.3-5.4,1.8-10.6,4.2-15.4,2.5-5.2,5.8-9.4,9.2-12C26.9-.04,30.2-.64,32.6,1.06c2.4,1.6,3.6,5.3,3.4,10.2-.3,5.4-1.8,10.6-4.2,15.4-2.5,5.2-5.8,9.4-9.2,12-1.7,1.3-3.9,2.2-6.1,2.4ZM29.4,1.26c-2,.2-4,1-5.5,2.3-3.3,2.5-6.4,6.6-8.8,11.6-2.3,4.6-3.7,9.7-4,14.9-.2,4.4,.9,7.7,2.9,9.1s4.9,.9,8.1-1.5c3.3-2.5,6.4-6.6,8.8-11.6,2.3-4.6,3.7-9.7,4-14.9,.2-4.4-.9-7.7-2.9-9.1-.8-.6-1.7-.9-2.6-.8h0Z"/><path id="o" class="s" d="M23,31.26c-5.5,.1-11-.9-16.1-3C2.5,26.26,0,23.56,0,20.56s2.4-5.7,6.9-7.7c5.1-2.1,10.6-3.1,16.1-3,5.5-.1,11,.9,16.1,3,4.4,2,6.9,4.7,6.9,7.7s-2.4,5.7-6.9,7.7c-5.1,2.1-10.6,3.1-16.1,3Zm0-20.3C11,10.96,1.2,15.26,1.2,20.56s9.8,9.6,21.8,9.6,21.8-4.3,21.8-9.6-9.8-9.6-21.8-9.6h0Z"/><path id="p" class="s" d="M22.9,14.16c3.6,0,6.4,2.9,6.4,6.4s-2.9,6.5-6.4,6.5-6.5-2.9-6.5-6.5,3-6.4,6.5-6.4h0Z"/><path id="q" class="r" d="M23,27.66c-3.9,0-7.1-3.2-7.1-7.1s3.2-7.1,7.1-7.1,7.1,3.2,7.1,7.1h0c0,3.9-3.2,7.1-7.1,7.1Zm0-12.6c-3,0-5.4,2.4-5.4,5.4s2.4,5.4,5.4,5.4,5.4-2.4,5.4-5.4-2.4-5.4-5.4-5.4Z"/></g><g class="t"><path class="s" d="M57.88,9.38h-1.75v-1.71h5.8v1.71h-1.72v9.64h-2.33V9.38Z"/><path class="s" d="M62.98,7.67h2.31v4.65h2V7.67h2.31v11.35h-2.31v-5.03h-2v5.03h-2.31V7.67Z"/><path class="s" d="M71.34,7.67h4.94v1.6h-2.65v3.01h2.04v1.61h-2.04v3.56h2.68v1.57h-4.97V7.67Z"/><path class="s" d="M80.82,15.39v-4.06c0-2.34,.77-3.8,3.32-3.8s3.18,1.32,3.18,3.28v.95h-2.24v-1.05c0-.8-.03-1.53-.92-1.53s-.99,.76-.99,1.6v5.15c0,.97,.18,1.58,.99,1.58,.88,0,.92-.76,.92-1.58v-1.11h2.24v.94c0,1.98-.7,3.4-3.18,3.4s-3.32-1.51-3.32-3.78Z"/><path class="s" d="M88.56,15.44v-4.23c0-2.33,.84-3.68,3.35-3.68s3.35,1.37,3.35,3.68v4.24c0,2.31-.85,3.71-3.35,3.71s-3.35-1.4-3.35-3.73Zm4.34,.57v-5.36c0-.78-.13-1.47-1-1.47s-.99,.69-.99,1.47v5.36c0,.77,.1,1.5,.99,1.5s1-.73,1-1.5Z"/><path class="s" d="M96.94,7.67h2.45l1.4,7.16,1.48-7.16h2.37l.21,11.35h-1.68l-.18-7.7-1.46,7.7h-1.43l-1.5-7.75-.17,7.75h-1.69l.2-11.35Z"/><path class="s" d="M106.67,7.67h2.45l1.4,7.16,1.48-7.16h2.37l.21,11.35h-1.68l-.18-7.7-1.46,7.7h-1.43l-1.5-7.75-.17,7.75h-1.69l.2-11.35Z"/><path class="s" d="M116.16,15.43V7.67h2.27V15.75c0,.87,.1,1.74,1.01,1.74s1.01-.87,1.01-1.74V7.67h2.28v7.76c0,2.38-.71,3.74-3.29,3.74s-3.28-1.36-3.28-3.74Z"/><path class="s" d="M124.34,7.67h1.61l2.52,5.9V7.67h1.92v11.35h-1.55l-2.52-6.28v6.28h-1.98V7.67Z"/><path class="s" d="M132.12,7.67h2.3v11.35h-2.3V7.67Z"/><path class="s" d="M137.21,9.38h-1.75v-1.71h5.8v1.71h-1.72v9.64h-2.33V9.38Z"/><path class="s" d="M143.76,14.52l-2.21-6.85h2.17l1.22,3.99,1.12-3.99h2.12l-2.19,6.85v4.5h-2.23v-4.5Z"/></g><g class="t"><path class="s" d="M52.54,32.64l1.99-.34c.04,1.42,.38,2.1,1.12,2.1,.59,0,.77-.43,.77-.92,0-.97-.49-1.51-1.25-2.17l-1.18-1.02c-.84-.71-1.44-1.54-1.44-2.87,0-1.86,1.19-2.89,3.08-2.89,2.28,0,2.75,1.7,2.83,3.15l-2,.29c-.03-1.04-.14-1.75-.9-1.75-.53,0-.8,.48-.8,.97,0,.81,.39,1.25,1.02,1.79l1.15,1.01c.95,.83,1.74,1.82,1.74,3.36,0,1.62-1.16,2.82-2.93,2.82-2.1,0-3.11-1.12-3.21-3.53Z"/><path class="s" d="M59.72,32.39v-4.06c0-2.34,.77-3.8,3.32-3.8s3.18,1.32,3.18,3.28v.95h-2.24v-1.05c0-.8-.03-1.53-.92-1.53s-.99,.76-.99,1.6v5.15c0,.97,.18,1.58,.99,1.58,.88,0,.92-.76,.92-1.58v-1.11h2.24v.94c0,1.98-.7,3.4-3.18,3.4s-3.32-1.51-3.32-3.78Z"/><path class="s" d="M67.66,24.67h2.3v11.35h-2.3v-11.35Z"/><path class="s" d="M71.68,24.67h4.94v1.6h-2.65v3.01h2.04v1.61h-2.04v3.56h2.68v1.57h-4.97v-11.35Z"/><path class="s" d="M77.82,24.67h1.61l2.52,5.9v-5.9h1.92v11.35h-1.55l-2.52-6.28v6.28h-1.98v-11.35Z"/><path class="s" d="M85.41,32.39v-4.06c0-2.34,.77-3.8,3.32-3.8s3.18,1.32,3.18,3.28v.95h-2.24v-1.05c0-.8-.03-1.53-.92-1.53s-.99,.76-.99,1.6v5.15c0,.97,.18,1.58,.99,1.58,.88,0,.92-.76,.92-1.58v-1.11h2.24v.94c0,1.98-.7,3.4-3.18,3.4s-3.32-1.51-3.32-3.78Z"/><path class="s" d="M93.32,24.67h4.94v1.6h-2.65v3.01h2.04v1.61h-2.04v3.56h2.68v1.57h-4.97v-11.35Z"/><path class="s" d="M103.12,24.67h2.45l1.4,7.16,1.48-7.16h2.37l.21,11.35h-1.68l-.18-7.7-1.46,7.7h-1.43l-1.5-7.75-.17,7.75h-1.7l.2-11.35Z"/><path class="s" d="M112.61,32.43v-7.76h2.27v8.08c0,.87,.1,1.74,1.01,1.74s1.01-.87,1.01-1.74v-8.08h2.28v7.76c0,2.38-.71,3.74-3.29,3.74s-3.28-1.36-3.28-3.74Z"/><path class="s" d="M120.51,32.64l1.99-.34c.04,1.42,.38,2.1,1.12,2.1,.59,0,.77-.43,.77-.92,0-.97-.49-1.51-1.25-2.17l-1.18-1.02c-.84-.71-1.44-1.54-1.44-2.87,0-1.86,1.19-2.89,3.08-2.89,2.28,0,2.75,1.7,2.83,3.15l-2,.29c-.03-1.04-.14-1.75-.9-1.75-.53,0-.8,.48-.8,.97,0,.81,.39,1.25,1.02,1.79l1.15,1.01c.95,.83,1.74,1.82,1.74,3.36,0,1.62-1.16,2.82-2.93,2.82-2.1,0-3.11-1.12-3.21-3.53Z"/><path class="s" d="M127.86,24.67h4.95v1.6h-2.65v3.01h2.04v1.61h-2.04v3.56h2.67v1.57h-4.97v-11.35Z"/><path class="s" d="M133.92,32.43v-7.76h2.27v8.08c0,.87,.1,1.74,1.01,1.74s1.01-.87,1.01-1.74v-8.08h2.28v7.76c0,2.38-.71,3.74-3.29,3.74s-3.28-1.36-3.28-3.74Z"/><path class="s" d="M142.25,24.67h2.45l1.4,7.16,1.48-7.16h2.37l.21,11.35h-1.68l-.18-7.7-1.46,7.7h-1.43l-1.5-7.75-.17,7.75h-1.69l.2-11.35Z"/></g></g></g></svg>